<svg xmlns="http://www.w3.org/2000/svg" viewBox="0.003549814224243164 -0.0036641943734139204 65.9726333618164 58.15542221069336"><path d="M27.91 39.36c0 5.45-.05 10.9 0 16.35 0 1.75-.58 2.42-2.37 2.41-7.83-.06-15.67 0-23.51 0-.66 0-1.48.21-1.9-.45s.31-1.25.68-1.76Q9.44 44.22 18.09 32.6c2.56-3.45 5.09-6.91 7.66-10.34.39-.52.73-1.4 1.49-1.2.94.25.65 1.24.65 1.94.03 5.45.02 10.9.02 16.36z" fill="#74c6be"></path><path d="M37.26 19.09V2.71C37.28.24 37.63.08 40 .12c5.67.11 11.33.22 17-.07a31 31 0 0 1 5.1.12c1.55.18 1.08 1.3.6 2.13-.8 1.36-1.7 2.7-2.59 3.94Q49.88 21 39.62 35.84c-.45.64-.8 1.72-1.77 1.39s-.53-1.39-.53-2.18v-16z" fill="#fff100"></path><path d="M48.05 58.09h-9.41c-1.39 0-2.26-.44-1.19-1.95 3.47-4.88 6.82-9.86 10.5-14.59a9.63 9.63 0 0 1 11.41-3.09 10 10 0 0 1 6.58 10.26 9.72 9.72 0 0 1-9.51 9.37c-2.79.01-5.59 0-8.38 0z" fill="#601986"></path><path d="M17.22.21C19.94.44 23.4 0 26.87 0c.71 0 1.4 0 1.8.66s-.19 1.13-.53 1.62c-3.42 4.84-6.64 9.83-10.64 14.2-2.51 2.75-5.93 3.26-9.44 2.17a8.76 8.76 0 0 1-6.41-7.25C.59 5 4.71.25 11.15.21z" fill="#ea5504"></path></svg>