<svg data-v-6805eed4="" version="1.0" xmlns="http://www.w3.org/2000/svg" xmlns:xlink="http://www.w3.org/1999/xlink" width="100%" height="100%" viewBox="0 0 340.000000 250.000000" preserveAspectRatio="xMidYMid meet" color-interpolation-filters="sRGB" style="margin: auto;"> <rect data-v-6805eed4="" x="0" y="0" width="100%" height="100%" fill="#ffffff" fill-opacity="1" class="background"></rect> <rect data-v-6805eed4="" x="0" y="0" width="100%" height="100%" fill="url(#watermark)" fill-opacity="1" class="watermarklayer"></rect> <g data-v-6805eed4="" fill="#020f40" class="basesvg" transform="translate(67.80999732017517,97.5)"><g data-gra="path-name" fill-rule="" class="tp-name"><g transform="scale(1)"><g><path d="M0.44 15.4Q-3.74 15.4-3.74 12.21L-3.74 12.21Q-3.74 10.45-2.58 8.96-1.43 7.48 0.3 6.27 2.04 5.06 5.28 3.19L5.28 3.19Q8.14 1.54 10.01 0.33L10.01 0.33Q9.9-1.49 8.86-3.08 7.81-4.67 5.39-6.43L5.39-6.43Q7.42-6.99 8.94-8.25 10.45-9.52 11.25-11.11 12.04-12.71 12.04-14.13L12.04-14.13Q12.04-15.23 11.52-15.98 11-16.72 9.79-16.72L9.79-16.72Q7.54-16.72 5.64-14.13 3.74-11.55 1.49-6.76L1.49-6.76 0.44-7.65Q2.53-13.37 4.81-16.39 7.09-19.41 10.62-19.41L10.62-19.41Q12.98-19.41 14.52-18.12 16.06-16.83 16.06-14.46L16.06-14.46Q16.06-11.94 14.3-9.63 12.54-7.32 9.85-5.94L9.85-5.94Q12.21-4.07 13.42-1.43L13.42-1.43Q17.88-4.84 19.52-9.13L19.52-9.13 20.24-8.25Q19.41-5.83 17.79-3.74 16.17-1.65 13.97 0L13.97 0Q14.19 0.99 14.19 1.81L14.19 1.81Q14.19 5 12.27 8.17 10.34 11.33 7.15 13.37 3.96 15.4 0.44 15.4L0.44 15.4ZM-0.33 13.31Q1.1 13.31 3.38 11.94 5.67 10.56 7.56 8.09 9.46 5.61 9.9 2.53L9.9 2.53 6.05 4.79Q1.87 7.26 0.03 8.72-1.81 10.18-1.81 11.82L-1.81 11.82Q-1.81 12.6-1.4 12.95-0.99 13.31-0.33 13.31L-0.33 13.31ZM24.59 2.42Q21.12 2.42 19.2 0.55 17.27-1.32 17.27-4.24L17.27-4.24Q17.27-7.42 19.42-11.14 21.56-14.85 24.92-17.35 28.27-19.86 31.52-19.86L31.52-19.86Q33.22-19.86 34.38-19 35.53-18.15 35.53-16.17L35.53-16.17Q35.53-13.53 33.5-11.19 31.46-8.86 28.24-7.37 25.03-5.88 21.67-5.5L21.67-5.5Q21.56-4.95 21.56-4.24L21.56-4.24Q21.56-2.81 22.36-1.38 23.16 0.06 25.8 0.06L25.8 0.06Q29.15 0.06 32.64-2.67 36.14-5.39 38.28-9.46L38.28-9.46 39.38-8.58Q37.18-3.63 33.08-0.6 28.98 2.42 24.59 2.42L24.59 2.42ZM22.28-7.54Q24.26-7.75 26.7-9.13 29.15-10.51 30.86-12.51 32.56-14.52 32.56-16.45L32.56-16.45Q32.56-17.05 32.34-17.27 32.12-17.49 31.63-17.49L31.63-17.49Q30.03-17.49 28.13-15.98 26.23-14.46 24.64-12.15 23.05-9.85 22.28-7.54L22.28-7.54ZM47.14 1.43Q45.1 1.43 43.84 0.36 42.57-0.71 42.57-2.53L42.57-2.53Q42.57-3.58 42.98-4.81 43.4-6.05 44.22-7.81L44.22-7.81Q44.94-9.35 45.32-10.42 45.7-11.49 45.7-12.32L45.7-12.32Q45.7-14.41 42.95-15.84L42.95-15.84Q41.86-13.09 40.4-10.29 38.94-7.48 37.79-5.55L37.79-5.55 36.96-7.15Q39.49-11.66 41.41-17.11L41.41-17.11Q40.87-17.66 40.87-18.59L40.87-18.59Q40.87-20.02 41.75-21.29 42.63-22.55 43.45-22.55L43.45-22.55Q44-22.55 44.36-21.89 44.72-21.23 44.72-20.79L44.72-20.79Q44.72-20.57 44.47-19.83 44.22-19.09 44.11-18.75L44.11-18.75Q44.16-18.37 44.55-18.01 44.94-17.66 45.98-17L45.98-17Q47.91-15.73 48.98-14.55 50.05-13.37 50.05-11.38L50.05-11.38Q50.05-10.18 49.64-8.96 49.23-7.75 48.4-6.05L48.4-6.05Q47.19-3.63 47.19-2.58L47.19-2.58Q47.19-1.32 48.56-1.32L48.56-1.32Q50.22-1.32 52.17-2.64 54.12-3.96 55.74-5.86 57.37-7.75 58.14-9.4L58.14-9.4 59.45-8.42Q58.36-5.94 56.38-3.69 54.39-1.43 51.95 0 49.5 1.43 47.14 1.43L47.14 1.43ZM60.55 1.76Q58.3 1.76 57.28 0.28 56.27-1.21 56.27-3.41L56.27-3.41Q56.27-5.72 57.23-8.2 58.19-10.67 59.73-12.32 61.27-13.97 62.86-13.97L62.86-13.97Q63.52-13.97 64.57-13.53L64.57-13.53Q64.9-16.06 66.36-17.71 67.81-19.36 70.45-19.36L70.45-19.36Q72.66-19.36 73.7-18.12 74.75-16.89 74.75-14.9L74.75-14.9Q74.75-12.98 73.73-10.51 72.71-8.03 71.11-5.55L71.11-5.55Q71.77-5.22 72.66-5.22L72.66-5.22Q74.19-5.22 75.95-6.24 77.72-7.26 78.65-9.35L78.65-9.35 79.64-8.63Q78.48-6 76.53-4.62 74.58-3.25 72.49-3.25L72.49-3.25Q71.22-3.25 69.74-3.74L69.74-3.74Q67.7-1.32 65.28 0.22 62.86 1.76 60.55 1.76L60.55 1.76ZM69.25-6.71Q70.62-8.74 71.53-10.95 72.44-13.14 72.44-14.9L72.44-14.9Q72.44-17.32 70.89-17.32L70.89-17.32Q70.18-17.32 69.41-16.61 68.64-15.89 68.14-14.71 67.65-13.53 67.65-12.1L67.65-12.1Q67.65-10.84 68.09-9.21 68.53-7.59 69.25-6.71L69.25-6.71ZM62.53-1.04Q63.52-1.04 64.95-2.15 66.38-3.25 67.81-4.95L67.81-4.95Q64.68-7.7 64.52-13.04L64.52-13.04Q63.85-12.71 62.92-11 61.98-9.29 61.32-7.21 60.66-5.12 60.66-3.58L60.66-3.58Q60.66-1.04 62.53-1.04L62.53-1.04ZM81.73-7.81Q82.39-9.9 85.14-10.59 87.89-11.28 90.47-11.28L90.47-11.28Q92.84-11.22 96.39-11.11 99.93-11 102.35-10.89L102.35-10.89Q101.8-9.63 99.85-8.77 97.9-7.92 95.64-7.92L95.64-7.92Q95.15-7.92 93.17-8.03L93.17-8.03Q90.64-8.25 88.77-8.25L88.77-8.25Q86.95-8.25 84.86-8.09 82.77-7.92 81.73-7.81L81.73-7.81ZM135.35 1.71Q133.32 1.71 132.22 0.49 131.12-0.71 131.12-2.58L131.12-2.58Q131.12-3.46 131.37-4.54 131.61-5.61 131.94-6.54L131.94-6.54Q132.66-8.8 132.66-9.85L132.66-9.85Q132.66-11.49 131.39-11.49L131.39-11.49Q130.19-11.49 128.59-9.73 126.99-7.97 124.3-3.96L124.3-3.96Q123.64-2.97 122.32-0.6L122.32-0.6 121.27 1.26Q120.28 1.26 119.13 0.88 117.97 0.49 117.97-0.17L117.97-0.17Q117.97-0.71 119.13-3.69L119.13-3.69Q120.23-6.54 120.92-8.69 121.6-10.84 121.6-12.27L121.6-12.27Q121.6-13.92 120.45-13.92L120.45-13.92Q118.96-13.92 116.6-11.58 114.23-9.24 111.92-5.64 109.61-2.04 108.35 1.49L108.35 1.49Q107.36 1.49 106.01 0.94 104.66 0.39 104.66 0L104.66 0 108.18-14.08Q108.35-14.69 109.37-15.15 110.38-15.62 111.21-15.62L111.21-15.62Q112.03-15.62 112.56-15.13 113.08-14.63 113.08-13.8L113.08-13.8Q113.08-12.93 112.31-9.85L112.31-9.85Q114.95-13.47 117.75-15.87 120.56-18.26 123.03-18.26L123.03-18.26Q124.9-18.26 125.7-16.94 126.5-15.62 126.5-13.64L126.5-13.64Q126.5-12.6 126.28-11.69 126.06-10.78 125.56-9.24L125.56-9.24Q129.41-14.9 133.54-14.9L133.54-14.9Q135.52-14.9 136.43-13.72 137.33-12.54 137.33-10.78L137.33-10.78Q137.33-9.02 136.23-5.83L136.23-5.83Q136.18-5.61 135.82-4.4 135.46-3.19 135.46-2.42L135.46-2.42Q135.46-0.94 136.84-0.94L136.84-0.94Q138.82-0.94 140.72-3.46 142.61-6 144.26-9.52L144.26-9.52 145.2-8.36Q143.6-4.24 141.1-1.26 138.6 1.71 135.35 1.71L135.35 1.71ZM145.97 2.58Q144.04 2.58 142.75 1.32 141.46 0.06 141.46-2.25L141.46-2.25Q141.46-5.45 143.8-9.4 146.13-13.37 149.76-16.11 153.39-18.86 157.02-18.86L157.02-18.86Q159.44-18.86 161.07-17.63 162.69-16.39 162.69-14.46L162.69-14.46Q162.69-11.94 159.55-11.82L159.55-11.82Q161.53-11.22 161.53-10.18L161.53-10.18Q161.53-9.79 161.15-9.02 160.76-8.25 160.27-7.42L160.27-7.42Q159.39-6 158.89-4.92 158.4-3.85 158.4-2.92L158.4-2.92Q158.4-2.09 158.81-1.51 159.22-0.94 160.05-0.94L160.05-0.94Q161.59-0.94 163.98-3.08 166.38-5.22 168.63-9.52L168.63-9.52 169.67-8.47Q167.64-3.9 164.61-1.13 161.59 1.65 158.51 1.65L158.51 1.65Q156.31 1.65 155.13 0.19 153.94-1.26 153.94-3.14L153.94-3.14Q151.47-0.17 149.71 1.21 147.95 2.58 145.97 2.58L145.97 2.58ZM147.13-0.22Q149.05-0.22 151.61-3 154.16-5.78 157.41-10.23L157.41-10.23 158.51-11.71Q158.67-11.99 158.95-11.99L158.95-11.99 159.17-11.94Q159.44-12.81 159.44-13.97L159.44-13.97Q159.44-16.83 157.13-16.83L157.13-16.83Q154.71-16.83 152.07-14.24 149.43-11.66 147.65-8.09 145.86-4.51 145.86-1.98L145.86-1.98Q145.86-1.04 146.16-0.63 146.46-0.22 147.13-0.22L147.13-0.22ZM178.2-23.16Q177.05-23.16 176.25-23.71 175.45-24.25 175.45-25.3L175.45-25.3Q175.45-26.57 176.85-27.53 178.25-28.49 179.85-28.49L179.85-28.49Q182.22-28.49 182.22-26.46L182.22-26.46Q182.22-25.3 180.95-24.23 179.69-23.16 178.2-23.16L178.2-23.16ZM171.71 1.65Q169.4 1.65 168.13 0.28 166.87-1.1 166.87-3.25L166.87-3.25Q166.87-5.45 168.11-9.21 169.34-12.98 171.24-15.84 173.14-18.7 175.06-18.7L175.06-18.7Q175.78-18.7 176.25-18.29 176.72-17.88 176.72-17.11L176.72-17.11Q176.72-16.61 176.28-15.76 175.84-14.9 174.84-13.31L174.84-13.31Q173.09-10.39 172.07-8.17 171.05-5.94 171.05-3.96L171.05-3.96Q171.05-2.25 171.66-1.65 172.26-1.04 173.53-1.04L173.53-1.04Q177.87-1.04 182.16-9.46L182.16-9.46 182.99-8.58Q181.06-3.74 178.09-1.04 175.12 1.65 171.71 1.65L171.71 1.65ZM185.46 1.65Q183.04 1.65 181.94 0.06 180.84-1.54 180.84-4.18L180.84-4.18Q180.84-9.24 184.28-17.71 187.72-26.18 192-32.89 196.29-39.6 198.33-39.6L198.33-39.6Q199.26-39.6 199.92-38.14 200.58-36.69 200.64-35.2L200.64-35.2Q200.64-32.67 198.6-27.8 196.57-22.93 193.13-17.93 189.69-12.93 185.79-9.85L185.79-9.85Q185.19-6.43 185.19-4.67L185.19-4.67Q185.19-2.75 185.82-1.81 186.45-0.88 187.55-0.88L187.55-0.88Q189.47-0.88 191.65-3.44 193.82-6 195.52-9.63L195.52-9.63 196.84-8.91Q194.42-3.9 191.51-1.13 188.59 1.65 185.46 1.65L185.46 1.65ZM186.78-13.26Q189.75-16.45 192.36-20.73 194.97-25.02 196.54-28.88 198.11-32.73 198.11-34.59L198.11-34.59Q197.39-34.59 195.22-31.24 193.05-27.89 190.66-22.91 188.26-17.93 186.78-13.26L186.78-13.26Z" transform="translate(3.740000009536743, 39.599998474121094)"></path></g> <!----> <!----> <!----> <!----> <!----> <!----> <!----></g></g> <!----></g><defs v-gra="od"></defs></svg>