<?xml version="1.0" standalone="no"?><!DOCTYPE svg PUBLIC "-//W3C//DTD SVG 1.1//EN" "http://www.w3.org/Graphics/SVG/1.1/DTD/svg11.dtd"><svg t="1696681006535" class="icon" viewBox="0 0 1024 1024" version="1.1" xmlns="http://www.w3.org/2000/svg" p-id="14796" xmlns:xlink="http://www.w3.org/1999/xlink" width="200" height="200"><path d="M511.480672 2.046612C230.196311 2.046612 2.06759 230.254128 2.06759 511.590678c0 281.202497 228.127697 509.252423 509.413082 509.252423 281.231149 0 509.280052-228.04788 509.280052-509.252423C1020.760724 230.254128 792.711821 2.046612 511.480672 2.046612zM807.661302 635.224486l0 4.7727 0 4.456498 0 5.350868 0 9.231245 12.973476 8.330736 4.798283 7.54279 2.744507 3.084245 0.12996 3.665483-0.553609 2.583848-1.451048 3.164063-1.449002 2.00261-2.082428 2.583848-1.818415 2.056845-2.030239 1.792832-2.480494 1.109264-2.188852-10.363022-1.765203-10.836813-1.581008 0-1.215688 0-1.792832 10.836813-3.375887 8.989745-1.583055 7.173376-1.583055 0-1.790786-5.934153-1.792832-3.953032-2.979868-4.376681-3.453658-5.194302-2.795673-5.036713-2.768043-4.007267-2.662643-4.535293-3.795443-7.962346-4.246721-10.468422-0.50142-2.530636-0.683569 0-1.794879 3.53143-1.001817 3.269463-1.686409 3.243881-2.876514 8.306176-4.374634 11.54801-5.64251 13.760398-4.166903 6.857175-4.455475 7.17133-5.27412 8.042163-5.564739 7.856945-2.874467 3.585665-3.477194 3.875261-7.938809 7.804756 0.711198 0.685615 1.083681 1.107217 3.981684 2.402723 16.559141 7.936763 7.251148 4.061502 6.853082 3.981684 6.831592 4.928243 6.064113 5.16872 2.977821 2.320858 2.162246 2.638083 2.294252 3.109828 1.898233 3.375887 0.975211 2.742461 1.291412 3.375887 0.499373 2.90005-14.657838 3.373841-15.873526 2.26867 0 2.292206 14.766308 2.400676 6.330172 2.162246 3.321652 1.686409 0.841158 2.109034-2.026146 4.061502-2.348488 3.269463-1.898233 2.478448-1.686409 1.792832L766.47732 819.61096l-5.114484 2.847861-5.564739 2.793626-5.827729 2.690272-6.643304 2.581802-3.479241 1.055029-3.189645 0.89744-7.647167 1.792832-7.910157 1.686409-7.960299 1.684362-8.624425 1.39886-8.937556-1.001817-9.121751-0.289596-9.017374 0-9.5454 0-9.809413 0-10.228969 0.791016-9.5454-0.211824-10.228969-1.029446-10.231015-0.920976-10.704806-1.396813-10.388605-2.532683-10.125615-1.950422-10.125615-2.874467-10.335393-3.663436-10.126638-3.088338-5.326309-1.790786-4.798283-1.686409-2.952238-3.613294-3.006474-3.032056-3.849678 0-4.539386 0-9.755178 0-4.956895 1.606591-6.380314 0.367367-4.00829 4.193509-5.588275 3.719718-7.54279 3.797489-8.331759 4.613064-5.062296 2.532683-5.272074 1.979074-11.706623 4.798283-6.329149 1.555425-6.644327 1.792832-9.230222 1.792832-5.746888 0.528026-6.169513 0.473791-6.380314-3.162016-7.435343-3.587712L407.910828 837.749062l-7.437389 0-15.820314 0-17.138332 3.587712-16.559141 0.23536-8.438183-0.23536-8.120958-0.687662-7.963369-0.949628-7.909134-1.476631-7.383154-2.318812-7.329942-1.660826-6.643304-2.664689-6.274914-2.478448-5.853311-2.742461-5.063319-3.111874-5.010107-3.637854-1.740644-1.792832-2.266623-2.190899-1.687432-1.870604-1.582031-2.216481-1.423419-2.158153-1.056052-2.162246-1.581008-4.694929-11.443633-2.372024-11.522428-2.690272 0-2.478448 0-2.793626 0-2.742461 0-2.795673 0-1.684362 0-3.851725 11.759835-3.006474 7.040347-3.375887 3.954055-3.373841 3.428076-4.061502 2.215458-1.583055 1.555425-1.792832 3.348258-3.851725 2.558265-2.00261 2.39863-1.373277 2.241041-1.790786 3.50687-1.107217 2.742461-1.686409 3.480264-1.792832 3.955078-1.163499 4.007267-1.211595 4.535293-1.001817 4.376681-0.581238 5.167696-0.683569 5.590322 5.588275 1.424442 5.483898L320.315818 756.745167l-25.654286-12.577456 0-0.685615 12.154831-1.396813 3.585665-1.37123-4.16588-6.461155-3.296069-3.979638-4.930289-5.062296-5.431709-5.64251-5.853311-7.251148-6.856152-8.148587-2.530636-4.323469-3.453658-4.588505-2.926656-5.272074-2.689249-5.747911-3.533476-5.458315-2.426259-6.249331-2.742461-6.246261-2.794649-6.934946-2.055822-6.643304-1.898233-5.959735-0.632403 2.004657-0.580215 0-0.316202 0-0.685615 0-1.159406-2.004657-0.580215-1.001817-0.843204 0.737804-0.264013 1.37123-0.579191 1.319042-1.108241 2.39863-3.374864 6.011924-1.792832 3.665483-2.794649 3.164063-2.953262 3.849678-3.269463 4.244674-3.480264 3.771907-4.060479 3.689019-3.796466 3.481288-4.16588 2.690272L211.845361 688.98797l-4.376681 1.715061-5.167696-7.093559-5.062296-7.856945-0.528026 0-0.685615 0-1.159406 7.856945-0.89744 2.188852-1.475608 1.107217-2.003634-3.691065-1.212618-2.082428-1.264806-3.399423-1.108241-3.719718-0.580215-3.691065-13.815657-8.645914-12.840446-5.010107 0-5.166673 0-11.495822 12.840446-12.419867 7.092535-6.355755 4.245697-6.537903 2.63706-7.066953 2.636037-6.541997 2.558265-7.53665 2.373047-7.330966 3.085268-7.540743 2.847861-7.251148 3.876284-7.356548 3.612271-7.909134 4.376681-7.439436 5.115508-8.068769 5.273097-7.223518 5.482875-8.070816 4.536316-5.536087 5.853311-6.431479 6.169513-6.486738 2.901073-3.057639 3.427052-3.479241 5.063319-4.350075 5.167696-4.455475 8.43716-7.540743 6.380314-4.692882 2.267647-1.687432-1.318018-3.849678-18.141172-5.063319-17.798365-2.793626 0-3.480264 0-4.139274 0-3.770883 18.325367-4.482081 9.836019-4.746094 5.878894-4.956895 4.325515-5.564739-19.801998-5.773494-18.562774-5.749958 0-4.059456 24.125467-3.770883 12.472056-5.14109 7.724938-5.774517 4.535293-6.248308 2.794649-2.87549 2.242064-2.662643-0.053212-3.00545 0.158612-2.162246 0-4.059456 0-4.588505 0-5.64251 3.453658-7.329942 2.346441-8.54256 2.769067-10.231015 3.240811-10.629081 2.346441-5.826705 2.267647-6.381337 2.399653-5.959735 2.874467-6.328126 2.901073-6.960529 3.347235-6.538927 3.823072-6.961552 4.746094-6.960529 2.215458-3.955078 2.373047-3.269463 5.062296-7.330966 5.272074-7.329942 5.9055-7.593955 6.380314-7.30436 6.90834-7.250124 7.27673-7.435343 8.755408-8.04114 5.536087-4.878101 6.751774-5.247514 6.855128-4.6673 7.436366-4.482081 7.119141-3.955078 8.067746-3.269463 8.543583-4.061502 8.383948-2.793626 8.543583-2.874467 9.122775-2.874467 9.175987-2.188852 9.596566-1.76725 9.756201-1.582031 9.597589-1.318018 9.649777 4.957919 10.229992 5.641487 9.702989 0 10.126638 0 10.386558 0 10.126638-4.955872 10.125615-1.898233 10.335393-0.50142 9.597589 1.503237 10.126638 1.791809 9.543354 2.294252 10.388605 2.663666 9.5454 3.348258 9.121751 3.849678 9.755178 4.060479 8.911974 4.456498 8.647961 4.956895 8.436136 5.458315 7.330966 5.03569 3.399423 2.90005 3.561106 2.055822 6.749728 5.8001 5.747911 5.53711 5.64251 5.748934 5.565762 6.352685 4.558829 6.14393 5.456269 6.381337 3.773953 6.827499 3.875261 6.039553 4.087085 7.064906 3.347235 6.117324 5.776563 13.025665 2.765997 6.750751 2.190899 6.274914 2.160199 6.724145 2.004657 6.353708 1.396813 5.458315 1.76725 6.459109 3.086291 11.496845 1.977028 10.019191 1.319042 9.702989 1.079588 7.856945 1.769296 11.917424 0.396019 1.898233 1.396813 2.163269 3.771907 6.16849 2.372024 4.166903 2.190899 4.351098 2.793626 4.6673 2.372024 5.53711 1.583055 5.77554 1.686409 6.247284 1.291412 6.433526-13.500479 3.190669-13.657045 3.876284 0 3.374864 0 3.374864 0 4.16588 12.865006 4.059456 5.140067 7.857968-9.305947 3.955078-8.700149 4.482081 0 1.055029 11.388375 1.424442 7.437389 3.26844 11.627828 13.184277 8.358365 9.914814 4.061502 6.643304 4.850471 7.27673 4.164856 7.910157 4.640694 8.54256 4.615111 9.5454 5.194302 10.810207 2.90005 6.641257 2.662643 6.433526 2.294252 6.855128 2.26867 6.14393 1.686409 6.459109 1.792832 6.066159 2.188852 11.812023-13.791098 12.076036-14.344706 10.730389L807.658232 635.224486 807.661302 635.224486z" fill="#19ADF7" p-id="14797"></path></svg>